<svg xmlns="http://www.w3.org/2000/svg" width="141.746" height="156.149" viewBox="0 0 141.746 156.149">
  <g id="Group_178" data-name="Group 178" transform="translate(-212.254 -80.271)">
    <path id="Path_1079" data-name="Path 1079" d="M166,551l2.144,5.143,2.144,5.143a7.143,7.143,0,0,0,2.364,3l.915.669.914.669A1.169,1.169,0,0,0,176.3,565l.277-.992.277-.994a1.408,1.408,0,0,1,.085-.227,1.023,1.023,0,0,1,.131-.2.861.861,0,0,1,.373-.271.877.877,0,0,1,.427-.048,1.373,1.373,0,0,1,.283.071,1.23,1.23,0,0,1,.308.163,1.652,1.652,0,0,1,.171.146,1.861,1.861,0,0,1,.439.746,3.581,3.581,0,0,1,.156.727c.019.171.037.342.056.512s.038.34.062.512l.227,1.771c.075.59.152,1.181.227,1.771a4.918,4.918,0,0,0,2.019,3.377l1.012.723,1.01.723A2.654,2.654,0,0,0,187.954,572h0a1.332,1.332,0,0,1,.1-.265,1.017,1.017,0,0,1,.16-.233.984.984,0,0,1,.169-.15.935.935,0,0,1,.769-.142,1.63,1.63,0,0,1,.36.136,1.491,1.491,0,0,1,.517.439,2.088,2.088,0,0,1,.283.529,2.49,2.49,0,0,1,.1.373,2.935,2.935,0,0,1,.044.385c.038.837.1,1.575.158,2.277s.131,1.369.192,2.07a5.409,5.409,0,0,0,2.173,3.87l1.366,1.008,1.366,1.008a3.8,3.8,0,0,0,5.4-.927l1.4-2.062,1.4-2.064-18.952-13.626Z" transform="translate(52.899 -382.846)" fill="#666538"/>
    <path id="Path_1080" data-name="Path 1080" d="M419.471,675.664a14.864,14.864,0,0,1-5.908,11.521,23.715,23.715,0,0,1-28.534,0,14.188,14.188,0,0,1,0-23.043,23.706,23.706,0,0,1,28.528,0A14.871,14.871,0,0,1,419.471,675.664Z" transform="translate(-119.232 -470.373)" fill="#f98638"/>
    <path id="Path_1081" data-name="Path 1081" d="M302.3,722.909a22.363,22.363,0,0,1-4.333,2.231,20.842,20.842,0,0,1-4.718,1.208,29.438,29.438,0,0,1-5.62.154c-1.862-.11-3.722-.337-5.6-.558a75.9,75.9,0,0,0-15.865-.087,130.1,130.1,0,0,0-15.7,2.5,39.236,39.236,0,0,1-12.965.654,26.7,26.7,0,0,1-12.134-4.424l-2.36,5.962-2.36,5.972a52.051,52.051,0,0,0,7.543,4.064,56.281,56.281,0,0,0,8.078,2.816,45.866,45.866,0,0,0,4.629.987,37.185,37.185,0,0,0,4.712.446c.294,0,2.048.017,3.724-.05s3.27-.208,3.258-.5l.275,4.447.277,4.447h36.171v-8.991a7.736,7.736,0,0,0,1.346-.046c.687-.046,1.373-.117,1.443-.127a27.753,27.753,0,0,0,3.654-.731,32.411,32.411,0,0,0,3.533-1.183,35.76,35.76,0,0,0,8.913-5.243,47.439,47.439,0,0,0,7.33-7.32c.394-.485.769-.977,1.154-1.475s.748-1,1.112-1.506l-4.637-4.868-4.637-4.868a26.492,26.492,0,0,1-2.8,3.293,22.364,22.364,0,0,1-3.423,2.8Z" transform="translate(8.76 -516.774)" fill="#f4ece5"/>
    <path id="Path_1082" data-name="Path 1082" d="M696.881,650.335a1.376,1.376,0,0,0-.514-.277,1.845,1.845,0,0,0-.475-.075,1.709,1.709,0,0,0-.267-1.042,1.45,1.45,0,0,0-.789-.612,1.5,1.5,0,0,0-1.2.167,1.7,1.7,0,0,0-.779,1.058,1.787,1.787,0,0,0-1.062-.287c-.6.04-1.346.454-1.9,1.941-.075.192-.152.4-.235.6s-.165.385-.258.589a26,26,0,0,1-1.235,2.308,13.467,13.467,0,0,1-1.862,2.464,1.2,1.2,0,0,1-1.016.333,1.3,1.3,0,0,1-.91-.577,1.1,1.1,0,0,1-.127-.9,7.8,7.8,0,0,1,.348-.9,10.539,10.539,0,0,0,.635-1.894c.129-.708.06-1.379-.562-1.687a1.322,1.322,0,0,0-1.652.427,6.425,6.425,0,0,0-.99,1.625c-.644,1.391-1.316,2.754-2.044,4.072a37.077,37.077,0,0,1-2.385,3.789l4.637,4.868,4.637,4.868c.831-1.154,1.631-2.327,2.419-3.512s1.564-2.375,2.343-3.564a54.523,54.523,0,0,0,3.018-5.193,51.061,51.061,0,0,0,2.4-5.51l.021-.052a.441.441,0,0,1,.019-.054,4.907,4.907,0,0,0,.181-.61,4.092,4.092,0,0,0,.1-.631,3.278,3.278,0,0,0-.029-.85A1.514,1.514,0,0,0,696.881,650.335Z" transform="translate(-360.313 -461.41)" fill="#ffaa9f"/>
    <path id="Path_1083" data-name="Path 1083" d="M386.7,781.469l1.9-2.1,1.9-2.1V764.358q.669-.127,1.358-.242t1.392-.229q.987-.152,1.946-.283c.64-.087,1.269-.165,1.891-.237v10.9a3.1,3.1,0,0,0,3.095,3.1h10.017a3.1,3.1,0,0,0,3.095-3.1V762.84c.523.042,1.052.085,1.585.133s1.071.1,1.614.154c.629.065,1.252.133,1.866.2s1.221.144,1.819.221v13.815l1.631,1.994,1.631,1.995v9.007H387.252l-.277-4.447Z" transform="translate(-125.354 -553.943)" fill="#deb8fc"/>
    <path id="Path_1084" data-name="Path 1084" d="M416.446,733.281a2.673,2.673,0,1,1-.783-1.891,2.673,2.673,0,0,1,.783,1.891Z" transform="translate(-145.06 -527.91)" fill="#2b3d0a"/>
    <path id="Path_1085" data-name="Path 1085" d="M390.016,728.091a2.673,2.673,0,1,1-.783-1.891A2.673,2.673,0,0,1,390.016,728.091Z" transform="translate(-123.713 -523.718)" fill="#2b3d0a"/>
    <path id="Path_1086" data-name="Path 1086" d="M526.339,730.862a2.673,2.673,0,1,0,.667-1.935A2.673,2.673,0,0,0,526.339,730.862Z" transform="translate(-238.133 -525.825)" fill="#2b3d0a"/>
    <path id="Path_1087" data-name="Path 1087" d="M552.408,724.092a2.673,2.673,0,1,0,.667-1.935,2.673,2.673,0,0,0-.667,1.935Z" transform="translate(-259.188 -520.357)" fill="#2b3d0a"/>
    <path id="Path_1088" data-name="Path 1088" d="M578.692,712.016l2.841.833,2.843.833a.392.392,0,0,0,.494-.465l-.7-2.885-.7-2.885a.385.385,0,0,0-.646-.192l-2.15,2.062-2.143,2.044a.385.385,0,0,0,.16.656Z" transform="translate(-280.19 -508.958)" fill="#2b3d0a"/>
    <path id="Path_1089" data-name="Path 1089" d="M361.4,721.12l-2.716,1.179-2.716,1.179a.385.385,0,0,1-.542-.4l.337-2.943.337-2.941a.385.385,0,0,1,.617-.269l2.381,1.762,2.379,1.762a.392.392,0,0,1-.077.671Z" transform="translate(-100.092 -516.795)" fill="#2b3d0a"/>
    <path id="Path_1090" data-name="Path 1090" d="M414.935,848.272a2.446,2.446,0,1,1,1.731-.716A2.446,2.446,0,0,1,414.935,848.272Zm0-3.924a1.485,1.485,0,1,0,1.048.435A1.485,1.485,0,0,0,414.935,844.348Z" transform="translate(-146.184 -618.992)" fill="#f98638"/>
    <path id="Path_1091" data-name="Path 1091" d="M533.135,848.272a2.446,2.446,0,1,1,1.731-.716A2.446,2.446,0,0,1,533.135,848.272Zm0-3.924a1.485,1.485,0,1,0,1.048.435A1.485,1.485,0,0,0,533.135,844.348Z" transform="translate(-241.65 -618.992)" fill="#f98638"/>
    <path id="Path_1092" data-name="Path 1092" d="M738.5,661.374a.258.258,0,0,1-.065-.01.323.323,0,0,1-.064-.029.248.248,0,0,1-.106-.152A.243.243,0,0,1,738.3,661q.533-.827,1-1.7c.311-.577.6-1.171.86-1.771a24.83,24.83,0,0,0,1.516-4.708.239.239,0,0,1,.1-.152.246.246,0,0,1,.181-.033.234.234,0,0,1,.152.1.244.244,0,0,1,.033.181c-.177.823-.394,1.639-.652,2.441a24.883,24.883,0,0,1-.892,2.36c-.265.612-.56,1.216-.875,1.806s-.658,1.171-1.017,1.731a.233.233,0,0,1-.09.083A.254.254,0,0,1,738.5,661.374Z" transform="translate(-409.301 -464.933)" fill="#ad4d4d"/>
    <path id="Path_1093" data-name="Path 1093" d="M751.16,665.581a.2.2,0,0,1-.067,0,.192.192,0,0,1-.063-.029.242.242,0,0,1-.071-.333c.369-.577.721-1.154,1.05-1.752s.637-1.206.919-1.823a25.4,25.4,0,0,0,1.019-2.527q.447-1.29.769-2.618a.238.238,0,0,1,.11-.15.242.242,0,0,1,.329.081.239.239,0,0,1,.029.183q-.327,1.346-.783,2.662t-1.035,2.571q-.433.941-.937,1.854c-.335.608-.692,1.2-1.067,1.781a.242.242,0,0,1-.089.083A.266.266,0,0,1,751.16,665.581Z" transform="translate(-419.523 -467.906)" fill="#ad4d4d"/>
    <path id="Path_1094" data-name="Path 1094" d="M162,714.641a17.862,17.862,0,0,1-2.233-2.194c-.675-.769-1.3-1.606-1.923-2.46a17.858,17.858,0,0,0-1.5-1.885c-.664-.7-1.419-1.254-2.048-1.056a.8.8,0,0,0-.313.192.912.912,0,0,0-.214.3,1.654,1.654,0,0,0-.121.844,3.692,3.692,0,0,0,.506,1.462,5.38,5.38,0,0,0,.325.506c.117.163.24.321.365.477a3.412,3.412,0,0,1,.235.333,3.064,3.064,0,0,1,.152.279,3,3,0,0,1,.21.506.531.531,0,0,1-.031.454.413.413,0,0,1-.215.15.977.977,0,0,1-.192.036c-.8.075-1.894-.748-2.785-1.592a18.927,18.927,0,0,1-1.581-1.706c-.121-.146-.856-1.029-1.7-1.885a5.77,5.77,0,0,0-2.368-1.731,1.112,1.112,0,0,0-.417.05.757.757,0,0,0-.16.069,1.043,1.043,0,0,0-.427.648,2.229,2.229,0,0,0-.065.556,1.809,1.809,0,0,0-.452-.088.961.961,0,0,0-.577.135,1.175,1.175,0,0,0-.46.933,2.458,2.458,0,0,0,.385,1.425.769.769,0,0,0-.556.485c-.181.433-.167,1.246.608,2.771a39.115,39.115,0,0,0,6.137,8.322,45.308,45.308,0,0,0,7.964,6.557l2.36-5.972,2.36-5.962c-.213-.15-.425-.3-.635-.46S162.2,714.806,162,714.641Z" transform="translate(70.874 -507.765)" fill="#ffaa9f"/>
    <path id="Path_1095" data-name="Path 1095" d="M244.98,780.972h-.037a.145.145,0,0,1-.038,0,.225.225,0,0,1-.138-.119.231.231,0,0,1-.015-.192l2.019-6.214,2.021-6.214a.243.243,0,0,1,.312-.154.229.229,0,0,1,.14.119.238.238,0,0,1,.015.192l-2.039,6.2L245.2,780.8a.238.238,0,0,1-.088.121A.243.243,0,0,1,244.98,780.972Z" transform="translate(-10.694 -558.162)" fill="#2b3d0a"/>
    <path id="Path_1096" data-name="Path 1096" d="M158.149,718.938a.226.226,0,0,1-.071-.012.234.234,0,0,1-.069-.035,29.118,29.118,0,0,1-3.847-4.039c-1.346-1.6-2.458-3.062-2.548-3.181a.242.242,0,0,1,.385-.292c.023.029,1.133,1.475,2.468,3.077a29.2,29.2,0,0,0,3.827,4.039.235.235,0,0,1,.1.156.24.24,0,0,1-.042.179.248.248,0,0,1-.087.075A.242.242,0,0,1,158.149,718.938Z" transform="translate(64.558 -512.303)" fill="#ad4d4d"/>
    <path id="Path_1097" data-name="Path 1097" d="M152.018,731.125a.249.249,0,0,1-.165-.067c-.471-.446-.937-.906-1.392-1.373s-.9-.944-1.346-1.427q-.877-.973-1.706-2t-1.6-2.085a.24.24,0,0,1,.054-.335.235.235,0,0,1,.179-.044.247.247,0,0,1,.156.1c.508.7,1.037,1.391,1.583,2.064s1.112,1.346,1.689,1.977q.646.717,1.325,1.414c.452.464.914.919,1.379,1.362a.242.242,0,0,1,.01.34.254.254,0,0,1-.081.056A.266.266,0,0,1,152.018,731.125Z" transform="translate(69.243 -522.407)" fill="#ad4d4d"/>
    <path id="Path_1098" data-name="Path 1098" d="M667.683,746.854a.252.252,0,0,1-.1-.021.232.232,0,0,1-.083-.062l-4.537-5.22-4.539-5.224a.248.248,0,0,1-.058-.175.24.24,0,0,1,.421-.14l4.537,5.22,4.539,5.22a.248.248,0,0,1,.058.175.233.233,0,0,1-.083.163.216.216,0,0,1-.075.044A.205.205,0,0,1,667.683,746.854Z" transform="translate(-344.772 -532.209)" fill="#2b3d0a"/>
    <path id="Path_1099" data-name="Path 1099" d="M454.761,705.622a8.463,8.463,0,1,1-2.47-5.979,8.462,8.462,0,0,1,2.47,5.979Z" transform="translate(-166.655 -500.891)" fill="#ffaa9f"/>
    <path id="Path_1100" data-name="Path 1100" d="M463.26,724.3a.525.525,0,1,1-.154-.367A.525.525,0,0,1,463.26,724.3Z" transform="translate(-186.341 -522.396)" fill="#2b3d0a"/>
    <path id="Path_1101" data-name="Path 1101" d="M491.062,724.3a.521.521,0,1,1-.152-.367A.522.522,0,0,1,491.062,724.3Z" transform="translate(-208.802 -522.397)" fill="#2b3d0a"/>
    <path id="Path_1102" data-name="Path 1102" d="M470.332,742.36a2.174,2.174,0,0,1-.789-.15,2.243,2.243,0,0,1-.7-.433,2.291,2.291,0,0,1-.758-1.623.24.24,0,0,1,.063-.173.251.251,0,0,1,.167-.077.223.223,0,0,1,.173.063.254.254,0,0,1,.077.169,1.785,1.785,0,0,0,.167.7,1.843,1.843,0,0,0,.433.577,1.749,1.749,0,0,0,.59.358,1.62,1.62,0,0,0,.667.1,1.714,1.714,0,0,0,1.142-.546,1.829,1.829,0,0,0,.5-1.194.248.248,0,0,1,.077-.169.227.227,0,0,1,.171-.063.242.242,0,0,1,.233.248,2.308,2.308,0,0,1-.635,1.514,2.2,2.2,0,0,1-1.456.69H470.4Z" transform="translate(-191.09 -535.413)" fill="#ad4d4d"/>
    <path id="Path_1103" data-name="Path 1103" d="M450.19,700.525a6.627,6.627,0,0,0,1.731-.962,6.8,6.8,0,0,0,.992-.944,5.975,5.975,0,0,0,.948,1.017,5.563,5.563,0,0,0,1.923,1.069,5.479,5.479,0,0,0,2.246.221,6.352,6.352,0,0,0,1.712-.437,8.449,8.449,0,0,0-13.513.277,7.275,7.275,0,0,0,1.717.192A6.624,6.624,0,0,0,450.19,700.525Z" transform="translate(-173.435 -500.97)" fill="#2b3d0a"/>
    <path id="Path_1104" data-name="Path 1104" d="M363.356,274.785l-10.926,1.387L341.5,277.559l-3.223-25.382-3.221-25.384,10.926-1.387,10.926-1.387,3.222,25.384Z" transform="translate(-83.646 -118.754)" fill="#deb8fc"/>
    <path id="Path_1105" data-name="Path 1105" d="M470.788,258.143l-7.832,2.466-7.834,2.466L451.9,237.692l-3.221-25.384,7.837-1.394,7.836-1.394,3.218,24.312Z" transform="translate(-175.414 -107.043)" fill="#deb8fc"/>
    <path id="Path_1106" data-name="Path 1106" d="M361.528,152.22l-10.407,1.371-10.409,1.373-2.825,6.918-2.827,6.92,10.926-1.387,10.926-1.387,2.308-6.9Z" transform="translate(-83.646 -60.763)" fill="#f4ece5"/>
    <path id="Path_1107" data-name="Path 1107" d="M453.3,152.22l5.529,5.51,5.528,5.51-7.836,1.394-7.837,1.394,2.308-6.9Z" transform="translate(-175.414 -60.763)" fill="#353519"/>
    <path id="Path_1108" data-name="Path 1108" d="M383.207,178.451a4.131,4.131,0,1,1,2.916-1.21A4.131,4.131,0,0,1,383.207,178.451Zm0-7.77a3.654,3.654,0,1,0,2.581,1.067A3.654,3.654,0,0,0,383.207,170.681Z" transform="translate(-119.192 -75.275)" fill="#2b3d0a"/>
    <path id="Path_1109" data-name="Path 1109" d="M384,134.069l-10.418,1.321-10.419,1.323-.181-1.429-.181-1.427a1.768,1.768,0,0,1,1.539-1.977l8.664-1.1,8.664-1.1a1.768,1.768,0,0,1,1.975,1.539l.183,1.427Z" transform="translate(-106.04 -42.549)" fill="#353519"/>
    <path id="Path_1110" data-name="Path 1110" d="M352.235,257.271a.233.233,0,0,1-.158-.06.24.24,0,0,1,.131-.419l5.193-.614,5.193-.615a.24.24,0,0,1,.217.387.237.237,0,0,1-.162.09l-5.193.615-5.193.616h-.029Z" transform="translate(-97.324 -144.229)" fill="#2b3d0a"/>
    <path id="Path_1111" data-name="Path 1111" d="M354.521,274.546a.252.252,0,0,1-.16-.06.248.248,0,0,1-.079-.152.237.237,0,0,1,.05-.177.233.233,0,0,1,.16-.09l3.4-.4,3.4-.4a.241.241,0,0,1,.215.389.235.235,0,0,1-.16.089l-3.4.4-3.4.4h-.029Z" transform="translate(-99.17 -158.524)" fill="#2b3d0a"/>
    <path id="Path_1112" data-name="Path 1112" d="M492.884,407.416a.244.244,0,0,1-.15-.052.231.231,0,0,1-.085-.137.242.242,0,0,1,.192-.287l4.466-.962,4.468-.962a.24.24,0,1,1,.1.469l-4.466.962-4.468.962h-.025Z" transform="translate(-210.922 -264.937)" fill="#2b3d0a"/>
    <path id="Path_1113" data-name="Path 1113" d="M495.263,422.638a.244.244,0,0,1-.15-.052.237.237,0,0,1-.085-.138.246.246,0,0,1,.033-.181.235.235,0,0,1,.152-.1l4.466-.962,4.466-.962a.242.242,0,0,1,.287.192.246.246,0,0,1-.033.181.238.238,0,0,1-.152.1l-4.468.962-4.466.962h-.025Z" transform="translate(-212.844 -277.23)" fill="#2b3d0a"/>
    <path id="Path_1114" data-name="Path 1114" d="M505.143,439.392a.239.239,0,0,1-.15-.054.253.253,0,0,1-.085-.137.237.237,0,0,1,.035-.181.244.244,0,0,1,.15-.106l3-.642,3-.644a.244.244,0,0,1,.181.033.248.248,0,0,1,.106.152.236.236,0,0,1-.035.181.244.244,0,0,1-.15.106l-3.01.642-3,.644h-.025Z" transform="translate(-220.823 -291.275)" fill="#2b3d0a"/>
    <path id="Path_1115" data-name="Path 1115" d="M398.6,282.725c.325.564.117,1.364-.483,2.2a10.075,10.075,0,0,1-6.347,3.666c-1.017.1-1.823-.121-2.148-.685s-.117-1.362.483-2.2a10.075,10.075,0,0,1,6.347-3.666C397.465,281.942,398.27,282.161,398.6,282.725Z" transform="translate(-127.587 -165.598)" fill="#353519"/>
    <path id="Path_1116" data-name="Path 1116" d="M477.867,264.247l-3.947.6-3.947.6a1.2,1.2,0,0,1-.9-.219,1.21,1.21,0,0,1-.479-.79l-2.087-13.621-2.089-13.636a1.21,1.21,0,0,1,1.01-1.375l3.947-.6,3.947-.606a1.21,1.21,0,0,1,1.375,1.01l2.089,13.628,2.087,13.63A1.206,1.206,0,0,1,477.867,264.247Z" transform="translate(-188.117 -127.291)" fill="#bab653"/>
    <path id="Path_1117" data-name="Path 1117" d="M586.719,301.962a9.962,9.962,0,0,1-2.062,5.193,3.926,3.926,0,0,1-7.037-.794,10.64,10.64,0,0,1,1.21-10.711,3.926,3.926,0,0,1,7.037.794A9.88,9.88,0,0,1,586.719,301.962Z" transform="translate(-278.807 -175.12)" fill="#f4ece5"/>
    <path id="Path_1118" data-name="Path 1118" d="M631.236,396.345a9.941,9.941,0,0,1-3.654,4.218,3.922,3.922,0,0,1-6.376-3.073,10.643,10.643,0,0,1,4.672-9.707,3.922,3.922,0,0,1,6.376,3.073A9.922,9.922,0,0,1,631.236,396.345Z" transform="translate(-314.705 -250.365)" fill="#f4ece5"/>
    <path id="Path_1119" data-name="Path 1119" d="M207.332,258.313c-.063-.21-.138-.421-.206-.6s-.129-.333-.165-.421a12.869,12.869,0,0,0-2.97-4.32,14.645,14.645,0,0,0-2.814-2.131,13.965,13.965,0,0,0-3.416-1.4,14.577,14.577,0,0,0-2.673-.44q.162-1.812.325-3.625l.327-3.625-2.141-.073-2.141-.075.148,2.675.148,2.675-2.545-5.012-2.545-5.016-2.081,1.264-2.081,1.264,1.04,1.6,1.041,1.6-1.208,1.133-1.208,1.133,2.814,3.27,2.814,3.27a15.085,15.085,0,0,0-2.16,2.795,14.106,14.106,0,0,0-1.881,5.254,13.654,13.654,0,0,0-.133,2.45,14.262,14.262,0,0,0,.217,2.043c.037.221.079.444.129.665s.11.442.175.662a10.59,10.59,0,0,0,5.666,6.474,12.923,12.923,0,0,0,16.4-4.962A10.584,10.584,0,0,0,207.332,258.313Z" transform="translate(39.839 -129.173)" fill="#e9cf81"/>
    <path id="Path_1120" data-name="Path 1120" d="M198.411,273.338a.282.282,0,0,1-.137-.035.286.286,0,0,1-.106-.1l-2.448-3.8-2.448-3.8a.288.288,0,1,1,.485-.312l2.448,3.8,2.448,3.8a.285.285,0,0,1,.04.217.3.3,0,0,1-.127.183A.283.283,0,0,1,198.411,273.338Z" transform="translate(30.91 -151.978)" fill="#666538"/>
    <path id="Path_1121" data-name="Path 1121" d="M229.366,350.714H229.3a11.336,11.336,0,0,1-5.443-3.352,14.974,14.974,0,0,1-3.229-6.251,24.272,24.272,0,0,1-.769-5.087,20.365,20.365,0,0,1,0-2.256.231.231,0,0,1,.083-.165.241.241,0,0,1,.4.2,19.916,19.916,0,0,0,0,2.212A23.81,23.81,0,0,0,221.09,341a14.5,14.5,0,0,0,3.095,6.047,10.838,10.838,0,0,0,5.241,3.208.239.239,0,0,1,.144.113.231.231,0,0,1,.021.183.237.237,0,0,1-.087.127A.241.241,0,0,1,229.366,350.714Z" transform="translate(9.424 -207.215)" fill="#2b3d0a"/>
    <path id="Path_1122" data-name="Path 1122" d="M256.338,343.39H256.3a.238.238,0,0,1-.158-.1.235.235,0,0,1-.044-.177,14.854,14.854,0,0,0-.592-7.107,15.135,15.135,0,0,0-2.673-4.725,17.751,17.751,0,0,0-3.031-2.871,13.027,13.027,0,0,0-1.46-.962.24.24,0,0,1,.042-.442.244.244,0,0,1,.192.017,12.878,12.878,0,0,1,1.539,1,18.172,18.172,0,0,1,3.093,2.933,15.579,15.579,0,0,1,2.75,4.881,15.306,15.306,0,0,1,.617,7.341.245.245,0,0,1-.083.146.24.24,0,0,1-.156.058Z" transform="translate(-13.504 -201.925)" fill="#2b3d0a"/>
    <path id="Path_1123" data-name="Path 1123" d="M165.049,409.273a2.783,2.783,0,0,1-.369,1.441.96.96,0,0,1-1.777,0,2.991,2.991,0,0,1,0-2.885.959.959,0,0,1,1.777,0A2.781,2.781,0,0,1,165.049,409.273Z" transform="translate(55.7 -266.728)" fill="#e9cf81"/>
    <path id="Path_1124" data-name="Path 1124" d="M217.968,499.333,210,507.08l-7.966,7.747a2.162,2.162,0,0,1-2.777.192l-18.493-13.434-18.5-13.43a2.162,2.162,0,0,1,.094-3.56l8.509-5.531,8.514-5.526a2.167,2.167,0,0,1,2.323-.021l17.95,11.219L217.6,495.954a2.16,2.16,0,0,1,.362,3.381Z" transform="translate(56.633 -320)" fill="#e9cf81"/>
    <path id="Path_1125" data-name="Path 1125" d="M585.468,179.247a2.382,2.382,0,0,1,.015,1.371.994.994,0,0,1-1.706.5,2.552,2.552,0,0,1-.731-2.531.994.994,0,0,1,1.706-.5,2.394,2.394,0,0,1,.716,1.16Z" transform="translate(-283.867 -81.399)" fill="#e9cf81"/>
    <path id="Path_1126" data-name="Path 1126" d="M564.659,209.629a3.078,3.078,0,0,1,.256,1.646,1.1,1.1,0,0,1-1.858.806,3.308,3.308,0,0,1-1.285-2.956,1.1,1.1,0,0,1,1.86-.808A3.078,3.078,0,0,1,564.659,209.629Z" transform="translate(-266.741 -105.84)" fill="#e9cf81"/>
    <path id="Path_1127" data-name="Path 1127" d="M594.378,238.249a3.556,3.556,0,0,1-.99,1.5,1.07,1.07,0,0,1-1.9-.689,3.847,3.847,0,0,1,1.191-3.291,1.07,1.07,0,0,1,1.9.69A3.538,3.538,0,0,1,594.378,238.249Z" transform="translate(-290.728 -127.933)" fill="#e9cf81"/>
    <path id="Path_1128" data-name="Path 1128" d="M178.443,451.483a1.154,1.154,0,0,1-1.112.1,2.856,2.856,0,0,1-1.75-2.293,1.04,1.04,0,0,1,1.5-1.142,2.854,2.854,0,0,1,1.75,2.293A1.154,1.154,0,0,1,178.443,451.483Z" transform="translate(45.179 -299.678)" fill="#e9cf81"/>
    <path id="Path_1129" data-name="Path 1129" d="M134.125,408.21a2.6,2.6,0,0,1,.729,1.281,1.048,1.048,0,0,1-1.333,1.333,2.787,2.787,0,0,1-2.012-2.012,1.048,1.048,0,0,1,1.333-1.333A2.589,2.589,0,0,1,134.125,408.21Z" transform="translate(80.802 -266.882)" fill="#e9cf81"/>
    <path id="Path_1130" data-name="Path 1130" d="M328.98,608.845a3.377,3.377,0,0,1-.206-1.333,3.44,3.44,0,0,1,.331-1.31,13.987,13.987,0,0,1,1.221-2.1,8.58,8.58,0,0,1,1.644-1.752,3.756,3.756,0,0,1,2.156-.856,2.575,2.575,0,0,1,2.081.935,3.992,3.992,0,0,1,.8,1.6,8.624,8.624,0,0,1,.267,1.792,12.861,12.861,0,0,1-.019,1.564c-.038.521-.1,1.04-.192,1.554a3.555,3.555,0,0,1-.769,1.664,3.325,3.325,0,0,1-1.5,1.033,4.808,4.808,0,0,1-1.889.244,4.5,4.5,0,0,1-1.821-.523,4.261,4.261,0,0,1-1.371-1.167A5.027,5.027,0,0,1,328.98,608.845Z" transform="translate(-78.566 -423.626)" fill="#f4ece5"/>
    <path id="Path_1131" data-name="Path 1131" d="M268.69,567.338a3.377,3.377,0,0,1-.206-1.333,3.437,3.437,0,0,1,.331-1.31,13.974,13.974,0,0,1,1.221-2.1,8.576,8.576,0,0,1,1.644-1.752,3.757,3.757,0,0,1,2.156-.848,2.572,2.572,0,0,1,2.081.935,3.991,3.991,0,0,1,.8,1.6,8.494,8.494,0,0,1,.26,1.791,12.834,12.834,0,0,1-.019,1.562c-.038.521-.1,1.04-.192,1.554A3.526,3.526,0,0,1,276,569.1a3.361,3.361,0,0,1-1.5,1.033,4.85,4.85,0,0,1-1.891.242,4.493,4.493,0,0,1-1.819-.523,4.291,4.291,0,0,1-1.373-1.167A5.108,5.108,0,0,1,268.69,567.338Z" transform="translate(-29.871 -390.107)" fill="#f4ece5"/>
    <path id="Path_1132" data-name="Path 1132" d="M212.405,525.789a3.336,3.336,0,0,1-.2-1.333,3.428,3.428,0,0,1,.329-1.308,14,14,0,0,1,1.221-2.108,8.579,8.579,0,0,1,1.644-1.752,3.762,3.762,0,0,1,2.158-.856,2.571,2.571,0,0,1,2.079.935,3.981,3.981,0,0,1,.8,1.6,8.492,8.492,0,0,1,.26,1.791,12.442,12.442,0,0,1-.019,1.562c-.037.521-.1,1.041-.192,1.556a3.527,3.527,0,0,1-.769,1.664,3.35,3.35,0,0,1-1.5,1.033,4.89,4.89,0,0,1-1.891.244,4.526,4.526,0,0,1-1.819-.525,4.311,4.311,0,0,1-1.373-1.166A5.115,5.115,0,0,1,212.405,525.789Z" transform="translate(15.587 -356.541)" fill="#f4ece5"/>
    <path id="Path_1133" data-name="Path 1133" d="M370.215,557.176a3.33,3.33,0,0,1-.2-1.333,3.434,3.434,0,0,1,.329-1.308,13.826,13.826,0,0,1,1.223-2.1,8.477,8.477,0,0,1,1.642-1.754,3.787,3.787,0,0,1,2.158-.856,2.574,2.574,0,0,1,2.079.935,3.975,3.975,0,0,1,.8,1.6,8.49,8.49,0,0,1,.26,1.789,12.475,12.475,0,0,1-.019,1.564c-.037.519-.1,1.039-.192,1.554a3.528,3.528,0,0,1-.769,1.664,3.319,3.319,0,0,1-1.5,1.033,4.882,4.882,0,0,1-1.891.244,4.492,4.492,0,0,1-1.819-.523,4.291,4.291,0,0,1-1.373-1.167A5.118,5.118,0,0,1,370.215,557.176Z" transform="translate(-111.871 -381.894)" fill="#f4ece5"/>
    <path id="Path_1134" data-name="Path 1134" d="M311.928,515.636a3.4,3.4,0,0,1,.127-2.641,13.655,13.655,0,0,1,1.221-2.1,8.419,8.419,0,0,1,1.642-1.752,3.777,3.777,0,0,1,2.158-.858,2.581,2.581,0,0,1,2.081.935,4.023,4.023,0,0,1,.8,1.6,8.747,8.747,0,0,1,.26,1.789,12.853,12.853,0,0,1-.021,1.564,15.163,15.163,0,0,1-.192,1.554,3.541,3.541,0,0,1-.769,1.664,3.31,3.31,0,0,1-1.5,1.031,4.881,4.881,0,0,1-1.889.244,4.493,4.493,0,0,1-1.821-.523,4.262,4.262,0,0,1-1.371-1.167A5.068,5.068,0,0,1,311.928,515.636Z" transform="translate(-64.795 -348.344)" fill="#f4ece5"/>
    <path id="Path_1135" data-name="Path 1135" d="M253.638,474.108a3.4,3.4,0,0,1,.127-2.643,13.817,13.817,0,0,1,1.221-2.1,8.517,8.517,0,0,1,1.643-1.752,3.783,3.783,0,0,1,2.158-.858,2.578,2.578,0,0,1,2.081.937,4.017,4.017,0,0,1,.8,1.6,8.622,8.622,0,0,1,.26,1.789,12.858,12.858,0,0,1-.019,1.564c-.038.521-.1,1.039-.192,1.554a3.556,3.556,0,0,1-.769,1.664,3.326,3.326,0,0,1-1.5,1.033,4.845,4.845,0,0,1-1.889.244,4.5,4.5,0,0,1-1.821-.523,4.263,4.263,0,0,1-1.371-1.167,5.088,5.088,0,0,1-.727-1.339Z" transform="translate(-17.716 -314.801)" fill="#f4ece5"/>
    <path id="Path_1136" data-name="Path 1136" d="M620.153,117.359l-3.581-6.056L613,105.246l1.264-.687,1.264-.689,1.585,2.775,1.587,2.775-2.237-7.16-2.233-7.16,2.477-.521,2.477-.519,1.264,5.649,1.266,5.649.915-4.087.917-4.089,2.181.792,2.179.792a44.466,44.466,0,0,0-1.864,5.874c-.825,3.37-1.431,7.607-.563,11.076l-2.67.821Z" transform="translate(-308.13 -13.789)" fill="#bab653"/>
    <path id="Path_1137" data-name="Path 1137" d="M650.19,208.294l6.337,20.12,6.347,20.12a9.466,9.466,0,0,0,1.289,2.885,3.336,3.336,0,0,0,4.587,1.267A2.527,2.527,0,0,0,669.9,251.1c.333-1.189.169-3.168-1.789-6.326-1.277-2.795-2.554-5.781-3.8-8.951s-2.485-6.526-3.645-10.063q-1.685-5.129-2.952-9.926t-2.2-9.182l-2.67.823Z" transform="translate(-338.167 -104.725)" fill="#f4ece5"/>
    <path id="Path_1138" data-name="Path 1138" d="M755.689,469.459c.06.058.123.117.192.175a2.62,2.62,0,0,0,.206.171,5.1,5.1,0,0,0,1.2.712,3.167,3.167,0,0,0,2.16.138,3.219,3.219,0,0,0,1.706-1.316,3.79,3.79,0,0,0,.635-2.091,3.592,3.592,0,0,0-.548-1.875,3.866,3.866,0,0,0-1.448-1.36,4.78,4.78,0,0,0,1.458.287,3.685,3.685,0,0,0,1.866-.419,3.931,3.931,0,0,0,1.746-1.9,4.46,4.46,0,0,0,.275-2.712,4.955,4.955,0,0,0-.564-1.235,3.789,3.789,0,0,0-1.827-1.558,3.914,3.914,0,0,0-2.82.06,4.947,4.947,0,0,0-2.4,2.039,4.111,4.111,0,0,0-.842-2.575,3.608,3.608,0,0,0-2.148-1.366,3.564,3.564,0,0,0-2,.192,3.631,3.631,0,0,0-2.289,3.791l-.081-.16-.081-.162a3.6,3.6,0,0,0-4.829-1.6h0a3.6,3.6,0,0,0-1.6,4.831l.808,1.612.81,1.612-2.308,1.154-2.308,1.154,1.164,2.319,1.154,2.32,2.308-1.154,2.308-1.154.825,1.616.81,1.612a3.6,3.6,0,0,0,4.829,1.6h0A3.6,3.6,0,0,0,755.689,469.459Z" transform="translate(-411.237 -304.96)" fill="#bab653"/>
    <path id="Path_1139" data-name="Path 1139" d="M528.009,533.4a2.954,2.954,0,0,1-2.206-.086,3.179,3.179,0,0,1-1.758-3.847,2.921,2.921,0,0,1,1.389-1.708l15.99-10.5,15.99-10.5a7.224,7.224,0,0,1,5.974-.962,7.826,7.826,0,0,1,4.849,3.91h0a7.832,7.832,0,0,1,.525,6.232,7.216,7.216,0,0,1-4.175,4.412l-18.291,6.52Z" transform="translate(-236.169 -346.125)" fill="#f98638"/>
    <path id="Path_1140" data-name="Path 1140" d="M701.818,561.37a.234.234,0,0,1-.127-.037.239.239,0,0,1-.09-.1l-1.525-3.214-1.525-3.212a.235.235,0,0,1,.306-.321.227.227,0,0,1,.136.123l1.527,3.212,1.525,3.214a.238.238,0,0,1-.114.319l-.052.017Z" transform="translate(-377.208 -385.646)" fill="#2b3d0a"/>
    <path id="Path_1141" data-name="Path 1141" d="M659.652,579.365a.251.251,0,0,1-.127-.037.235.235,0,0,1-.09-.1l-1.327-2.793-1.325-2.795a.232.232,0,0,1,0-.192.244.244,0,0,1,.123-.137.238.238,0,0,1,.319.113l1.327,2.795,1.327,2.793a.24.24,0,0,1-.114.321l-.052.017Z" transform="translate(-343.475 -400.847)" fill="#2b3d0a"/>
    <path id="Path_1142" data-name="Path 1142" d="M618.655,594.285a.249.249,0,0,1-.133-.038.255.255,0,0,1-.09-.11l-1.229-2.989-1.229-2.989a.237.237,0,0,1,0-.192.242.242,0,0,1,.129-.129.246.246,0,0,1,.192,0,.243.243,0,0,1,.131.131l1.229,2.989,1.229,2.989a.236.236,0,0,1,0,.192.242.242,0,0,1-.129.129.2.2,0,0,1-.046.013A.19.19,0,0,1,618.655,594.285Z" transform="translate(-310.516 -412.583)" fill="#2b3d0a"/>
    <path id="Path_1143" data-name="Path 1143" d="M789.978,476.182a.287.287,0,0,1-.158-.048.279.279,0,0,1-.108-.127l-.323-.752-.323-.75a.285.285,0,0,1,0-.221.281.281,0,0,1,.154-.158.285.285,0,0,1,.221,0,.281.281,0,0,1,.158.154l.323.752.325.75a.3.3,0,0,1,0,.221.281.281,0,0,1-.154.158.32.32,0,0,1-.056.019Z" transform="translate(-450.315 -320.739)" fill="#666538"/>
    <path id="Path_1144" data-name="Path 1144" d="M832.111,500.6h-.086l-.812-.26-.812-.262a.281.281,0,0,1-.167-.142.29.29,0,0,1,.344-.412l.81.26.812.26a.288.288,0,0,1,.087.51A.291.291,0,0,1,832.111,500.6Z" transform="translate(-483.557 -341.257)" fill="#666538"/>
    <path id="Path_1145" data-name="Path 1145" d="M814.013,524.611a.293.293,0,0,1-.144-.038.309.309,0,0,1-.108-.11l-.425-.769-.427-.769a.293.293,0,0,1-.025-.219.284.284,0,0,1,.523-.06l.425.769.425.769a.291.291,0,0,1-.112.385.347.347,0,0,1-.069.027A.3.3,0,0,1,814.013,524.611Z" transform="translate(-469.562 -359.827)" fill="#666538"/>
    <path id="Path_1146" data-name="Path 1146" d="M762.287,518.585l-.773-1.548-.773-1.546-.95,2.412-.95,2.412,1.723-.864Z" transform="translate(-425.92 -354.166)" fill="#666538"/>
    <path id="Path_1147" data-name="Path 1147" d="M642.49,175.584a.294.294,0,0,1-.154-.046.291.291,0,0,1-.11-.125l-.577-1.283-.577-1.283a.292.292,0,0,1,.144-.385.3.3,0,0,1,.221,0,.29.29,0,0,1,.161.152l.577,1.283.577,1.283a.29.29,0,0,1-.146.385.505.505,0,0,1-.058.019A.3.3,0,0,1,642.49,175.584Z" transform="translate(-330.783 -77.096)" fill="#666538"/>
    <path id="Path_1148" data-name="Path 1148" d="M657.078,153.187a.289.289,0,0,1-.289-.288v-1.31a.289.289,0,1,1,.577,0v1.31a.289.289,0,0,1-.083.2.294.294,0,0,1-.206.085Z" transform="translate(-343.498 -60.021)" fill="#666538"/>
    <path id="Path_1149" data-name="Path 1149" d="M374.489,344a2.2,2.2,0,0,0,.742-.8,1.042,1.042,0,0,0,.1-.815.869.869,0,0,0-.271-.385,1.2,1.2,0,0,0-.233-.15,1.481,1.481,0,0,0-1.131-.023,3.5,3.5,0,0,0-1.264.794c-.506,0-1.054,0-1.6.015s-1.1.015-1.6.015a2.869,2.869,0,0,0-1.375-.683,1.036,1.036,0,0,0-.942.252,1.279,1.279,0,0,0-.135,1.135,2.79,2.79,0,0,0,1.014,1.444l.577,3.014.577,3.014a.833.833,0,0,0,.288.49.844.844,0,0,0,.537.192h1.839l.565,7.234.565,7.234a.6.6,0,0,0,.6.558H376.4a.608.608,0,0,0,.423-.169.619.619,0,0,0,.183-.417l.113-3.791.113-3.791,4.06-.171,4.058-.169.792,3.847.792,3.847a.475.475,0,0,0,.475.385h1.027l-1.423-11.215-1.423-11.217-5.553.175Z" transform="translate(-109.208 -213.821)" fill="#f4ece5"/>
    <path id="Path_1150" data-name="Path 1150" d="M380.968,175.382a3.885,3.885,0,1,1-1.139-2.748A3.885,3.885,0,0,1,380.968,175.382Z" transform="translate(-114.449 -76.333)" fill="#353519"/>
    <path id="Path_1151" data-name="Path 1151" d="M406.36,419.97a.24.24,0,0,1-.24-.24V407.82a.24.24,0,1,1,.481,0v11.909A.24.24,0,0,1,406.36,419.97Z" transform="translate(-141.039 -267.01)" fill="#2b3d0a"/>
    <path id="Path_1152" data-name="Path 1152" d="M382.855,385.984a.242.242,0,1,1-.071-.171.242.242,0,0,1,.071.171Z" transform="translate(-121.857 -249.372)" fill="#2b3d0a"/>
    <path id="Path_1153" data-name="Path 1153" d="M388.226,385.982a.243.243,0,0,1-.242.242.237.237,0,0,1-.171-.071.242.242,0,0,1,0-.342.237.237,0,0,1,.171-.071.243.243,0,0,1,.242.242Z" transform="translate(-126.196 -249.371)" fill="#2b3d0a"/>
    <path id="Path_1154" data-name="Path 1154" d="M391.178,384.2a.253.253,0,0,1-.085-.015.228.228,0,0,1-.077-.046.244.244,0,0,1-.015-.34l.827-.912.829-.912a.24.24,0,0,1,.167-.079.247.247,0,0,1,.173.062.243.243,0,0,1,.077.167.239.239,0,0,1-.062.173l-.827.912-.829.912a.226.226,0,0,1-.083.06A.238.238,0,0,1,391.178,384.2Z" transform="translate(-128.778 -246.268)" fill="#2b3d0a"/>
    <path id="Path_1155" data-name="Path 1155" d="M390.165,347.378a2.778,2.778,0,0,0,.6.289,1.941,1.941,0,0,0,1.1.058,2.33,2.33,0,0,0,1.391-1.252,5.487,5.487,0,0,0,.554-2.527l-.829.025-.829.027a2.2,2.2,0,0,0,.742-.8,1.042,1.042,0,0,0,.1-.815.869.869,0,0,0-.271-.385,1.194,1.194,0,0,0-.233-.15,1.481,1.481,0,0,0-1.131-.023,3.5,3.5,0,0,0-1.264.794h-.715l-.744.01a7.116,7.116,0,0,0,.219,2.885A3.268,3.268,0,0,0,390.165,347.378Z" transform="translate(-126.867 -213.821)" fill="#f98638"/>
    <path id="Path_1156" data-name="Path 1156" d="M420.652,357.659a2.7,2.7,0,0,0,2.056-.962,7.96,7.96,0,0,0,1.035-1.275,3.952,3.952,0,0,0,1.179.675,2.81,2.81,0,0,0,2.633-.31l-.256-2.014-.256-2.014-4.5.14-4.5.142a7.838,7.838,0,0,0,.717,3.956A2.738,2.738,0,0,0,420.652,357.659Z" transform="translate(-150.659 -221.926)" fill="#f98638"/>
    <path id="Path_1157" data-name="Path 1157" d="M411.707,398.541a4.5,4.5,0,0,0-2.344-2.189,2.966,2.966,0,0,0-2.491.021,2.738,2.738,0,0,0-1.3,2,4.585,4.585,0,0,0,.239,2.433,5.873,5.873,0,0,0,1.09,1.748,5.946,5.946,0,0,0,1.619,1.275l.023-.769.023-.769,3.343-.14,3.341-.14a4.082,4.082,0,0,0-.542-2.248A3.013,3.013,0,0,0,411.707,398.541Z" transform="translate(-140.544 -257.73)" fill="#f98638"/>
    <path id="Path_1158" data-name="Path 1158" d="M369.486,343.63h-.26a2.869,2.869,0,0,0-1.375-.683,1.036,1.036,0,0,0-.942.252,1.279,1.279,0,0,0-.135,1.135,2.791,2.791,0,0,0,1.014,1.444l.3,1.589.3,1.581a3.13,3.13,0,0,0,1.289-2.533,10.256,10.256,0,0,0-.2-2.785Z" transform="translate(-109.208 -214.794)" fill="#f98638"/>
    <path id="Path_1159" data-name="Path 1159" d="M454.1,273.882a.233.233,0,0,1-.158-.06.25.25,0,0,1-.081-.15l-3.212-25.316-3.214-25.318a.246.246,0,0,1,.048-.177.24.24,0,0,1,.429.117l3.214,25.316,3.214,25.316a.242.242,0,0,1-.05.179.236.236,0,0,1-.16.09H454.1Z" transform="translate(-174.405 -117.743)" fill="#2b3d0a"/>
    <path id="Path_1160" data-name="Path 1160" d="M231.3,290.115a.289.289,0,0,1-.279-.215l-.254-.971-.254-.962a.279.279,0,0,1,.031-.219.291.291,0,0,1,.175-.135.3.3,0,0,1,.219.031.291.291,0,0,1,.133.177l.254.962.254.962a.285.285,0,0,1-.206.352h-.037Z" transform="translate(0.798 -170.109)" fill="#666538"/>
    <path id="Path_1161" data-name="Path 1161" d="M627.224,428.675a.617.617,0,1,1-.181-.435A.617.617,0,0,1,627.224,428.675Z" transform="translate(-318.621 -283.551)" fill="#e9cf81"/>
    <path id="Path_1162" data-name="Path 1162" d="M631.86,441.559a.925.925,0,1,1-.271-.656A.925.925,0,0,1,631.86,441.559Z" transform="translate(-321.868 -293.705)" fill="#e9cf81"/>
    <path id="Path_1163" data-name="Path 1163" d="M585.625,328.125a.617.617,0,1,1-.181-.435A.617.617,0,0,1,585.625,328.125Z" transform="translate(-285.022 -202.339)" fill="#e9cf81"/>
    <path id="Path_1164" data-name="Path 1164" d="M590.23,341.009a.925.925,0,1,1-.271-.656A.925.925,0,0,1,590.23,341.009Z" transform="translate(-288.245 -212.494)" fill="#e9cf81"/>
  </g>
</svg>
