<svg xmlns="http://www.w3.org/2000/svg" xmlns:xlink="http://www.w3.org/1999/xlink" width="87" height="87" viewBox="0 0 87 87">
  <defs>
    <filter id="Ellipse_176" x="0" y="0" width="87" height="87" filterUnits="userSpaceOnUse">
      <feOffset dy="3" input="SourceAlpha"/>
      <feGaussianBlur stdDeviation="10" result="blur"/>
      <feFlood flood-opacity="0.161"/>
      <feComposite operator="in" in2="blur"/>
      <feComposite in="SourceGraphic"/>
    </filter>
  </defs>
  <g id="Group_141" data-name="Group 141" transform="translate(-169.75 -128.816)">
    <g id="Group_108" data-name="Group 108" transform="translate(-120.25 -523.992)">
      <g transform="matrix(1, 0, 0, 1, 290, 652.81)" filter="url(#Ellipse_176)">
        <circle id="Ellipse_176-2" data-name="Ellipse 176" cx="13.5" cy="13.5" r="13.5" transform="translate(30 27)" fill="#2c2c2c"/>
      </g>
    </g>
    <path id="Icon_ionic-ios-checkmark" data-name="Icon ionic-ios-checkmark" d="M22.805,13.321l-1.016-1.045a.219.219,0,0,0-.162-.069h0a.21.21,0,0,0-.162.069l-7.046,7.1-2.564-2.564a.223.223,0,0,0-.323,0L10.5,17.837a.23.23,0,0,0,0,.329L13.738,21.4a1.023,1.023,0,0,0,.676.329,1.072,1.072,0,0,0,.67-.318h.006l7.722-7.762A.247.247,0,0,0,22.805,13.321Z" transform="translate(196.597 152.348)" fill="#fafafa"/>
  </g>
</svg>
