<svg xmlns="http://www.w3.org/2000/svg" width="18.964" height="17.677" viewBox="0 0 18.964 17.677">
  <path id="Icon_ionic-ios-heart-empty" data-name="Icon ionic-ios-heart-empty" d="M16.5,3.937h-.043a4.966,4.966,0,0,0-4.1,2.154,4.966,4.966,0,0,0-4.1-2.154H8.211A4.784,4.784,0,0,0,3.375,8.618a9.824,9.824,0,0,0,2.064,5.5,35.621,35.621,0,0,0,6.918,6.391,35.621,35.621,0,0,0,6.918-6.391,9.824,9.824,0,0,0,2.064-5.5A4.784,4.784,0,0,0,16.5,3.937Zm1.8,9.494a32.531,32.531,0,0,1-5.942,5.617,32.578,32.578,0,0,1-5.942-5.621A8.707,8.707,0,0,1,4.584,8.618,3.433,3.433,0,0,1,5.646,6.141,3.725,3.725,0,0,1,8.22,5.1h.039a3.74,3.74,0,0,1,3.088,1.628,1.242,1.242,0,0,0,2.03,0A3.74,3.74,0,0,1,16.463,5.1H16.5a3.733,3.733,0,0,1,2.574,1.04,3.423,3.423,0,0,1,1.062,2.477A8.818,8.818,0,0,1,18.3,13.431Z" transform="translate(-2.875 -3.438)" fill="#fafafa" stroke="#fafafa" stroke-width="1"/>
</svg>
