<svg xmlns="http://www.w3.org/2000/svg" xmlns:xlink="http://www.w3.org/1999/xlink" width="31.825" height="51.907" viewBox="0 0 31.825 51.907">
  <defs>
    <linearGradient id="linear-gradient" x1="0.5" y1="1" x2="0.5" gradientUnits="objectBoundingBox">
      <stop offset="0" stop-color="#8cdd79"/>
      <stop offset="1" stop-color="#d4e6b6"/>
    </linearGradient>
    <linearGradient id="linear-gradient-2" x1="0.5" x2="0.5" y2="0" xlink:href="#linear-gradient"/>
    <linearGradient id="linear-gradient-3" x1="0.5" y1="1" x2="0.5" gradientUnits="objectBoundingBox">
      <stop offset="0" stop-color="#d1a788"/>
      <stop offset="1" stop-color="#f2d3b8"/>
    </linearGradient>
    <linearGradient id="linear-gradient-4" y1="1" y2="0" xlink:href="#linear-gradient-3"/>
    <linearGradient id="linear-gradient-5" x1="0.502" y1="1" x2="0.502" y2="0.007" gradientUnits="objectBoundingBox">
      <stop offset="0" stop-color="#da5466"/>
      <stop offset="1" stop-color="#f4929c"/>
    </linearGradient>
    <linearGradient id="linear-gradient-6" x1="0.5" y1="1" x2="0.5" y2="0.001" xlink:href="#linear-gradient-5"/>
  </defs>
  <g id="Burrito" transform="translate(-12.999 -0.988)">
    <path id="Path_633" data-name="Path 633" d="M44.808,8.531a2.955,2.955,0,0,1-1.615,2.955c-.469.268.6,0-14.288,4.579L15.511,11.88a2.268,2.268,0,0,1-1.674-.72c-.937-.921-1.247-2.335-.092-3.03A1.674,1.674,0,0,0,14.5,6.1a2.042,2.042,0,0,1,2.126-2.812A1.674,1.674,0,0,0,18.449,2.4a2.394,2.394,0,0,1,4.093-.469.837.837,0,0,0,1.339.05A2.2,2.2,0,0,1,25.556,1a3.089,3.089,0,0,1,1.766.435,1.783,1.783,0,0,0,1.925-.042,2.461,2.461,0,0,1,2.9.167,1.674,1.674,0,0,0,1.917.1A4.185,4.185,0,0,1,36.437,1c2.461,0,1.8,2.151,3.9,1.8a2.453,2.453,0,0,1,2.679,2.637,1.724,1.724,0,0,0,.954,1.8,1.415,1.415,0,0,1,.837,1.3Z" fill="url(#linear-gradient)"/>
    <path id="Path_634" data-name="Path 634" d="M43.453,12.464c-.469.268.6,0-14.288,4.579-18.582-5.817-13.393-3.959-14.305-4.369a1.674,1.674,0,0,0-.1-.569,2.042,2.042,0,0,1,2.126-2.812A1.674,1.674,0,0,0,18.71,8.4,2.394,2.394,0,0,1,22.8,7.935a.837.837,0,0,0,1.339.05A2.2,2.2,0,0,1,25.817,7a3.089,3.089,0,0,1,1.766.435,1.783,1.783,0,0,0,1.925,0,2.461,2.461,0,0,1,2.9.167,1.674,1.674,0,0,0,1.917.1A4.185,4.185,0,0,1,36.7,7c2.461,0,1.8,2.151,3.9,1.8a2.511,2.511,0,0,1,2.7,2.386A2.059,2.059,0,0,0,43.453,12.464Z" transform="translate(-0.261 -0.978)" fill="url(#linear-gradient-2)"/>
    <path id="Path_635" data-name="Path 635" d="M45.883,13.281c-.469.268.6,0-14.288,4.579l-2.084-.653A25.2,25.2,0,0,1,45.724,12a2.059,2.059,0,0,0,.159,1.281Z" transform="translate(-2.691 -1.794)" fill="#7ece67"/>
    <path id="Path_636" data-name="Path 636" d="M30.834,16.88v.46l-1.674.519L15.767,13.674c-.2,0-.912-.1-.912-.193,0-.561-.3-.837-.285-1.482C20.672,12,24.974,12.837,30.834,16.88Z" transform="translate(-0.256 -1.794)" fill="#7ece67"/>
    <path id="Path_637" data-name="Path 637" d="M29.393,18.085V48.419A23.513,23.513,0,0,1,16,52.5V14a23.488,23.488,0,0,1,13.393,4.085Z" transform="translate(-0.489 -2.12)" fill="url(#linear-gradient-3)"/>
    <path id="Path_638" data-name="Path 638" d="M30.044,18.691V49.026c-.494.343-1,.661-1.523.971-11.375-8.429-11.35-23.873,0-32.277C29.048,18.03,29.551,18.348,30.044,18.691Z" transform="translate(-1.141 -2.727)" fill="#cba07a"/>
    <path id="Path_639" data-name="Path 639" d="M43.764,14V52.5a23.437,23.437,0,0,1-13.393-4.085C14.149,37.2,23.081,14,43.764,14Z" transform="translate(-1.468 -2.12)" fill="url(#linear-gradient-4)"/>
    <path id="Path_640" data-name="Path 640" d="M42.786,59.2c0,1.389-5.993,2.511-13.393,2.511S16,60.594,16,59.2A23.513,23.513,0,0,0,29.393,55.12,23.437,23.437,0,0,0,42.786,59.2Z" transform="translate(-0.489 -8.821)" fill="#cba07a"/>
    <path id="Path_641" data-name="Path 641" d="M40.194,12.521c0,.778.209-.05-3.809,1.339-2.294.787-1.08,1.013-2.235-.921A7.533,7.533,0,0,0,25.78,9.39a7.533,7.533,0,0,1,14.414,3.131Z" transform="translate(-2.083 -0.641)" fill="url(#linear-gradient-5)"/>
    <path id="Path_642" data-name="Path 642" d="M36.385,14.358c-2.294.787-1.08,1.013-2.235-.921a7.533,7.533,0,0,0-8.37-3.549A7.533,7.533,0,0,1,27.036,8a9.208,9.208,0,0,1,9.35,6.362Z" transform="translate(-2.083 -1.139)" fill="#e8677d"/>
    <path id="Path_643" data-name="Path 643" d="M33.939,15.3A22.684,22.684,0,0,0,30.1,17.432a23.01,23.01,0,0,0-9.777-3.817,7.433,7.433,0,0,1,4.6-3.4h0A7.533,7.533,0,0,1,33.939,15.3Z" transform="translate(-1.193 -1.467)" fill="url(#linear-gradient-6)"/>
    <path id="Path_644" data-name="Path 644" d="M32.674,29.837A.837.837,0,1,1,31.837,29,.837.837,0,0,1,32.674,29.837Z" transform="translate(-2.933 -4.565)" fill="#fce2d0"/>
    <path id="Path_645" data-name="Path 645" d="M30.674,41.837A.837.837,0,1,1,29.837,41,.837.837,0,0,1,30.674,41.837Z" transform="translate(-2.607 -6.52)" fill="#fce2d0"/>
    <path id="Path_646" data-name="Path 646" d="M43.674,40.837A.837.837,0,1,1,42.837,40,.837.837,0,0,1,43.674,40.837Z" transform="translate(-4.726 -6.357)" fill="#fce2d0"/>
    <path id="Path_647" data-name="Path 647" d="M43.674,24.837A.837.837,0,1,1,42.837,24,.837.837,0,0,1,43.674,24.837Z" transform="translate(-4.726 -3.75)" fill="#fce2d0"/>
    <path id="Path_648" data-name="Path 648" d="M23.674,20.837A.837.837,0,1,1,22.837,20,.837.837,0,0,1,23.674,20.837Z" transform="translate(-1.467 -3.098)" fill="#fce2d0"/>
    <path id="Path_649" data-name="Path 649" d="M20.674,51.837A.837.837,0,1,1,19.837,51,.837.837,0,0,1,20.674,51.837Z" transform="translate(-0.978 -8.15)" fill="#fce2d0"/>
    <path id="Path_650" data-name="Path 650" d="M39.674,51.837A.837.837,0,1,1,38.837,51,.837.837,0,0,1,39.674,51.837Z" transform="translate(-4.074 -8.15)" fill="#fce2d0"/>
    <path id="Path_651" data-name="Path 651" d="M31.637,16.874c-.536.3-1.046.628-1.54.971a23.01,23.01,0,0,0-9.777-3.817,7.416,7.416,0,0,1,1.2-1.5,24.718,24.718,0,0,1,10.12,4.344Z" transform="translate(-1.193 -1.881)" fill="#e8677d"/>
    <path id="Path_652" data-name="Path 652" d="M40.911,14.114A22.784,22.784,0,0,0,31.7,17.831c-.494-.343-1-.661-1.523-.971a24.442,24.442,0,0,1,10.614-4.42A6.537,6.537,0,0,1,40.911,14.114Z" transform="translate(-2.8 -1.866)" fill="#cf4055"/>
  </g>
</svg>
