<svg xmlns="http://www.w3.org/2000/svg" width="21" height="23.111" viewBox="0 0 21 23.111">
  <g id="Icon_feather-share-2" data-name="Icon feather-share-2" transform="translate(-3.5 -2)">
    <path id="Path_1069" data-name="Path 1069" d="M28.833,6.167A3.167,3.167,0,1,1,25.667,3,3.167,3.167,0,0,1,28.833,6.167Z" transform="translate(-5.333)" fill="#2c2c2c" stroke="#2c2c2c" stroke-linecap="round" stroke-linejoin="round" stroke-width="2"/>
    <path id="Path_1070" data-name="Path 1070" d="M10.833,16.667A3.167,3.167,0,1,1,7.667,13.5,3.167,3.167,0,0,1,10.833,16.667Z" transform="translate(0 -3.111)" fill="#2c2c2c" stroke="#2c2c2c" stroke-linecap="round" stroke-linejoin="round" stroke-width="2"/>
    <path id="Path_1071" data-name="Path 1071" d="M28.833,27.167A3.167,3.167,0,1,1,25.667,24,3.167,3.167,0,0,1,28.833,27.167Z" transform="translate(-5.333 -6.222)" fill="#2c2c2c" stroke="#2c2c2c" stroke-linecap="round" stroke-linejoin="round" stroke-width="2"/>
    <path id="Path_1072" data-name="Path 1072" d="M12.885,20.265l7.209,4.2" transform="translate(-2.484 -5.116)" fill="#2c2c2c" stroke="#2c2c2c" stroke-linecap="round" stroke-linejoin="round" stroke-width="2"/>
    <path id="Path_1073" data-name="Path 1073" d="M20.084,9.765l-7.2,4.2" transform="translate(-2.484 -2.004)" fill="#2c2c2c" stroke="#2c2c2c" stroke-linecap="round" stroke-linejoin="round" stroke-width="2"/>
  </g>
</svg>
