<svg xmlns="http://www.w3.org/2000/svg" xmlns:xlink="http://www.w3.org/1999/xlink" width="62.002" height="38" viewBox="0 0 62.002 38">
  <defs>
    <linearGradient id="linear-gradient" x1="0.5" y1="1" x2="0.5" gradientUnits="objectBoundingBox">
      <stop offset="0" stop-color="#d1a788"/>
      <stop offset="1" stop-color="#f2d3b8"/>
    </linearGradient>
    <linearGradient id="linear-gradient-3" xlink:href="#linear-gradient"/>
    <linearGradient id="linear-gradient-4" xlink:href="#linear-gradient"/>
    <linearGradient id="linear-gradient-5" x1="0.5" y1="0.999" x2="0.5" gradientUnits="objectBoundingBox">
      <stop offset="0" stop-color="#fbcc88"/>
      <stop offset="1" stop-color="#ffe5c3"/>
    </linearGradient>
    <linearGradient id="linear-gradient-6" x1="0.5" y1="1" x2="0.5" y2="0.001" gradientUnits="objectBoundingBox">
      <stop offset="0" stop-color="#d4d8e1"/>
      <stop offset="1" stop-color="#f3f4f5"/>
    </linearGradient>
    <linearGradient id="linear-gradient-7" y1="1" xlink:href="#linear-gradient-5"/>
  </defs>
  <g id="Pancake" transform="translate(-1 -13)">
    <path id="Path_653" data-name="Path 653" d="M55,37c4.26,0,5.4,6,2,6H7c-3.4,0-2.26-6,2-6Z" fill="url(#linear-gradient)"/>
    <path id="Path_654" data-name="Path 654" d="M55,31c4.26,0,5.4,6,2,6H7c-3.4,0-2.26-6,2-6Z" fill="url(#linear-gradient)"/>
    <path id="Path_655" data-name="Path 655" d="M7,31c-2.29,0-2.65-3-.83-4.83C7.81,24.55,4.87,25,55,25c3.38,0,4.94,3.92,3.41,5.41C57.58,31.27,60.84,31,7,31Z" fill="url(#linear-gradient-3)"/>
    <path id="Path_656" data-name="Path 656" d="M57,25c3.38,0,2.29-6-2-6H9c-4.25,0-5.42,6-2,6Z" fill="url(#linear-gradient-4)"/>
    <path id="Path_657" data-name="Path 657" d="M57,25H7c-1.35,0-2.43-1.24-1.82-3.18A2,2,0,0,0,7,23c50.93,0,51.12.53,51.82-1.18C59.43,23.76,58.34,25,57,25Z" fill="#cba07a"/>
    <path id="Path_658" data-name="Path 658" d="M57,31H7c-1.35,0-2.43-1.24-1.82-3.18A2,2,0,0,0,7,29c50.93,0,51.12.53,51.82-1.18C59.43,29.76,58.34,31,57,31Z" fill="#cba07a"/>
    <path id="Path_659" data-name="Path 659" d="M57,37H7c-1.35,0-2.43-1.24-1.82-3.18A2,2,0,0,0,7,35c50.93,0,51.12.53,51.82-1.18C59.43,35.76,58.34,37,57,37Z" fill="#cba07a"/>
    <path id="Path_660" data-name="Path 660" d="M57,43H7c-1.35,0-2.43-1.24-1.82-3.18A2,2,0,0,0,7,41c50.93,0,51.12.53,51.82-1.18C59.43,41.76,58.34,43,57,43Z" fill="#cba07a"/>
    <path id="Path_661" data-name="Path 661" d="M15,19a3,3,0,0,1,3,3V37a2,2,0,0,0,4,0V29a2,2,0,0,1,4,0v2a2,2,0,0,0,4,0V24a2,2,0,0,1,4,0v3a2,2,0,0,0,4,0,2,2,0,0,1,4,0v5a2,2,0,0,0,4,0V22a3,3,0,0,1,3-3Z" fill="url(#linear-gradient-5)"/>
    <path id="Path_662" data-name="Path 662" d="M11.25,51h41.5A10.57,10.57,0,0,0,63,43c0-.1,1.26,0-62,0a10.56,10.56,0,0,0,10.25,8Z" fill="url(#linear-gradient-6)"/>
    <path id="Path_663" data-name="Path 663" d="M62.69,44a10.54,10.54,0,0,1-9.94,7H11.25a10.55,10.55,0,0,1-9.94-7,10.93,10.93,0,0,0,9.27,5H53.42a11,11,0,0,0,9.27-5Z" fill="#c7cdd8"/>
    <rect id="Rectangle_88" data-name="Rectangle 88" width="12" height="6" transform="translate(26 13)" fill="url(#linear-gradient-7)"/>
    <rect id="Rectangle_89" data-name="Rectangle 89" width="12" height="2" transform="translate(26 17)" fill="#f6b756"/>
  </g>
</svg>
