<?xml version="1.0" encoding="UTF-8"?>
<svg id="Layer_1" data-name="Layer 1" xmlns="http://www.w3.org/2000/svg" viewBox="0 0 301 184">
  <defs>
    <style>
      .cls-1 {
        font-family: ClashDisplay-Medium, 'Clash Display';
        font-size: 48px;
        font-weight: 500;
      }
    </style>
  </defs>
  <g>
    <text class="cls-1" transform="translate(83.61 100.67)"><tspan x="0" y="0">fridgile</tspan></text>
    <path d="M87.31,76.79c-6.21,0-12.41,0-18.62,0-1.05,0-1.9,.86-1.88,1.91v.73c.03,1.04,.87,1.86,1.91,1.86l18.61-.14c1.04,0,1.87-.85,1.87-1.89v-.6c0-1.04-.85-1.88-1.89-1.88Z"/>
    <path d="M70.36,99.34c0-6.47,0-12.93,0-19.4,0-.82-.53-1.47-1.18-1.46l-1.24,.02c-.64,.01-1.15,.67-1.14,1.47l.11,19.38c0,.8,.52,1.45,1.16,1.45h1.13c.64,0,1.16-.66,1.16-1.46Z"/>
    <rect x="72.49" y="83.4" width="1.35" height="11.02" rx=".61" ry=".61"/>
    <path d="M87.57,96.3c-6.21,0-12.41,0-18.62,0-1.05,0-1.9,.86-1.88,1.91v.73c.03,1.04,.87,1.86,1.91,1.86l18.61-.14c1.04,0,1.87-.85,1.87-1.89v-.6c0-1.04-.85-1.88-1.89-1.88Z"/>
  </g>
  <g>
    <text class="cls-1" transform="translate(142.81 155.65)"><tspan x="0" y="0">f</tspan></text>
    <path d="M146.5,131.78c-6.21,0-12.41,0-18.62,0-1.05,0-1.9,.86-1.88,1.91v.73c.03,1.04,.87,1.86,1.91,1.86l18.61-.14c1.04,0,1.87-.85,1.87-1.89v-.6c0-1.04-.85-1.88-1.89-1.88Z"/>
    <path d="M129.56,154.32c0-6.47,0-12.93,0-19.4,0-.82-.53-1.47-1.18-1.46l-1.24,.02c-.64,.01-1.15,.67-1.14,1.47l.11,19.38c0,.8,.52,1.45,1.16,1.45h1.13c.64,0,1.16-.66,1.16-1.46Z"/>
    <rect x="131.69" y="138.38" width="1.35" height="11.02" rx=".61" ry=".61"/>
    <path d="M146.77,151.28c-6.21,0-12.41,0-18.62,0-1.05,0-1.9,.86-1.88,1.91v.73c.03,1.04,.87,1.86,1.91,1.86l18.61-.14c1.04,0,1.87-.85,1.87-1.89v-.6c0-1.04-.85-1.88-1.89-1.88Z"/>
  </g>
</svg>