<svg xmlns="http://www.w3.org/2000/svg" xmlns:xlink="http://www.w3.org/1999/xlink" width="150.038" height="210.625" viewBox="0 0 150.038 210.625">
  <defs>
    <linearGradient id="linear-gradient" x1="0.5" y1="1" x2="0.5" gradientUnits="objectBoundingBox">
      <stop offset="0" stop-color="#9b756d"/>
      <stop offset="1" stop-color="#bc9388"/>
    </linearGradient>
    <linearGradient id="linear-gradient-2" x1="0.5" y1="1" x2="0.5" gradientUnits="objectBoundingBox">
      <stop offset="0" stop-color="#f2e2ff"/>
      <stop offset="1" stop-color="#deb8fc"/>
    </linearGradient>
    <linearGradient id="linear-gradient-4" x1="0.5" y1="1" x2="0.5" gradientUnits="objectBoundingBox">
      <stop offset="0" stop-color="#d4d8e1"/>
      <stop offset="1" stop-color="#f3f4f5"/>
    </linearGradient>
    <linearGradient id="linear-gradient-5" x1="0.5" y1="1" x2="0.5" gradientUnits="objectBoundingBox">
      <stop offset="0" stop-color="#e9a254"/>
      <stop offset="1" stop-color="#f4bb79"/>
    </linearGradient>
  </defs>
  <g id="DrawKit-cooking-kitchen-food-vector-illustrations-08" transform="translate(4008.232 342)">
    <g id="Chars" transform="translate(-4165.331 -444)">
      <g id="Chocolate" transform="translate(153.164 162.535) rotate(-20)">
        <path id="Path_1268" data-name="Path 1268" d="M15,29.77V1H49V30" fill="url(#linear-gradient)"/>
        <path id="Path_1269" data-name="Path 1269" d="M50,19V63H14V32Z" fill="url(#linear-gradient-2)"/>
        <rect id="Rectangle_239" data-name="Rectangle 239" width="6" height="8" transform="translate(29 5)" fill="#8a6762"/>
        <rect id="Rectangle_240" data-name="Rectangle 240" width="6" height="8" transform="translate(39 5)" fill="#8a6762"/>
        <path id="Path_1270" data-name="Path 1270" d="M35,22.68V17H29c0,8.61,0,8,.06,8" fill="#8a6762"/>
        <rect id="Rectangle_241" data-name="Rectangle 241" width="6" height="8" transform="translate(19 5)" fill="#8a6762"/>
        <rect id="Rectangle_242" data-name="Rectangle 242" width="6" height="8" transform="translate(19 17)" fill="#8a6762"/>
        <path id="Path_1271" data-name="Path 1271" d="M39,20.69V17h6v1.38" fill="#8a6762"/>
        <path id="Path_1272" data-name="Path 1272" d="M43,21.53V55H21V29.6C21.86,29.1,19.35,30.06,43,21.53Z" fill="url(#linear-gradient-2)"/>
        <path id="Path_1273" data-name="Path 1273" d="M21,29.6v7.93a6.76,6.76,0,0,1-2.07-1c-1.63,1.43-3.14,3.4-4.93,5V32C22.32,29,22.2,28.9,21,29.6Z" fill="#e8677d"/>
        <path id="Path_1274" data-name="Path 1274" d="M50,19V29.46a13.81,13.81,0,0,1-5.83-2.13c-.33.17-.73.4-1.17.67V21.53Z" fill="#deb8fc"/>
        <path id="Path_1275" data-name="Path 1275" d="M43,21.53V28c-2.41,1.47-6,4.28-6,8v2c-2.57,0-5.27.44-8.81-4C26.44,36.53,24,38.32,21,37.53V29.6C21.86,29.1,19.35,30.06,43,21.53Z" fill="#f2e2ff"/>
        <path id="Path_1276" data-name="Path 1276" d="M57,26a11.09,11.09,0,0,1-12.63-1S35,29,35,36c-4,0-7-6-7-6s-3.5,9.5-9,4c-3.37,2-6.66,8-10,8l1.51-9A3.53,3.53,0,0,1,14,30c9-1.87,28.46-10.73,36-13a4.6,4.6,0,0,1,4.22,2.74Z" fill="url(#linear-gradient-4)"/>
        <rect id="Rectangle_243" data-name="Rectangle 243" width="36" height="3" transform="translate(14 60)" fill="#cf4055"/>
        <rect id="Rectangle_244" data-name="Rectangle 244" width="22" height="3" transform="translate(21 52)" fill="#f6b756"/>
      </g>
      <g id="GROCERY_BAG" data-name="GROCERY BAG" transform="translate(102.378 103)">
        <g id="BAGUETTE" transform="translate(142.338 4.028)">
          <path id="Path_1223" data-name="Path 1223" d="M463.237,190.814h0c-5,18.886-20.253,71.538-34.573,70.419-17.438-1.359,4.157-80.328,4.157-80.328s17.375-69.457,34.849-68.86S463.237,190.814,463.237,190.814Z" transform="translate(-421.863 -112.041)" fill="#e7d29f" stroke="#90805b" stroke-linecap="round" stroke-linejoin="round" stroke-width="2"/>
          <ellipse id="Ellipse_177" data-name="Ellipse 177" cx="2.072" cy="6.291" rx="2.072" ry="6.291" transform="translate(8.183 115.451) rotate(-87.5)" fill="#e7d29f" stroke="#90805b" stroke-linecap="round" stroke-linejoin="round" stroke-width="2"/>
          <ellipse id="Ellipse_178" data-name="Ellipse 178" cx="6.291" cy="2.072" rx="6.291" ry="2.072" transform="translate(33.195 24.548)" fill="#e7d29f" stroke="#90805b" stroke-linecap="round" stroke-linejoin="round" stroke-width="2"/>
          <ellipse id="Ellipse_179" data-name="Ellipse 179" cx="8.385" cy="2.758" rx="8.385" ry="2.758" transform="translate(26.655 41.482)" fill="#e7d29f" stroke="#90805b" stroke-linecap="round" stroke-linejoin="round" stroke-width="2"/>
          <ellipse id="Ellipse_180" data-name="Ellipse 180" cx="9.414" cy="3.096" rx="9.414" ry="3.096" transform="translate(18.43 59.267)" fill="#e7d29f" stroke="#90805b" stroke-linecap="round" stroke-linejoin="round" stroke-width="2"/>
          <ellipse id="Ellipse_181" data-name="Ellipse 181" cx="2.758" cy="8.385" rx="2.758" ry="8.385" transform="translate(10.955 99.648) rotate(-87.5)" fill="#e7d29f" stroke="#90805b" stroke-linecap="round" stroke-linejoin="round" stroke-width="2"/>
          <ellipse id="Ellipse_182" data-name="Ellipse 182" cx="3.096" cy="9.414" rx="3.096" ry="9.414" transform="translate(12.53 85.619) rotate(-87.5)" fill="#e7d29f" stroke="#90805b" stroke-linecap="round" stroke-linejoin="round" stroke-width="2"/>
        </g>
        <g id="Group_118" data-name="Group 118" transform="translate(4261.584 355.768)">
          <path id="Path_1296" data-name="Path 1296" d="M-4073.614-287.568s-5-2.146-4.717-2.861,5.865,0,5.865,0,4.08-2.04,4.845-2.04-1.785,2.04-1.785,2.04,5.737-.956,4.972,0-8.032,3.825-8.032,3.825Z" transform="translate(-2 3.185)" fill="#57a663" stroke="#44a052" stroke-width="0.5"/>
          <g id="Path_1292" data-name="Path 1292" transform="translate(-4085.364 -288.466)" fill="#e43c3c">
            <path d="M 11 20.59179878234863 C 8.03794002532959 20.59179878234863 5.333280086517334 19.6745491027832 3.384239912033081 18.00901985168457 C 1.333799958229065 16.25682830810547 0.25 13.83314895629883 0.25 10.99999904632568 C 0.25 9.568968772888184 0.5320199728012085 8.276988983154297 1.088230013847351 7.159939289093018 C 1.611220002174377 6.109579086303711 2.378870010375977 5.20789909362793 3.369829893112183 4.479948997497559 C 5.254869937896729 3.095209121704102 7.893340110778809 2.363279104232788 11 2.363279104232788 C 14.10665988922119 2.363279104232788 16.74513053894043 3.095209121704102 18.63017082214355 4.479948997497559 C 19.62112998962402 5.20789909362793 20.38878059387207 6.109579086303711 20.91176986694336 7.159939289093018 C 21.46797943115234 8.276988983154297 21.75 9.568968772888184 21.75 10.99999904632568 C 21.75 13.83314895629883 20.66620063781738 16.25682830810547 18.61576080322266 18.00901985168457 C 16.66671943664551 19.6745491027832 13.96205997467041 20.59179878234863 11 20.59179878234863 Z" stroke="none"/>
            <path d="M 11 2.613279342651367 C 7.94694995880127 2.613279342651367 5.359659194946289 3.328428268432617 3.517839431762695 4.681428909301758 C 1.515350341796875 6.152439117431641 0.5 8.278319358825684 0.5 10.99999904632568 C 0.5 13.75777912139893 1.553520202636719 16.11573791503906 3.546649932861328 17.8189582824707 C 5.450450897216797 19.44583892822266 8.097439765930176 20.34179878234863 11 20.34179878234863 C 13.90256023406982 20.34179878234863 16.5495491027832 19.44583892822266 18.45335006713867 17.8189582824707 C 20.44647979736328 16.11573791503906 21.5 13.75777912139893 21.5 10.99999904632568 C 21.5 8.278319358825684 20.48464965820312 6.152439117431641 18.4821605682373 4.681428909301758 C 16.64033889770508 3.328428268432617 14.05305004119873 2.613279342651367 11 2.613279342651367 M 11 2.113279342651367 C 17.07513046264648 2.113279342651367 22 4.924869537353516 22 10.99999904632568 C 22 17.07512855529785 17.07513046264648 20.84179878234863 11 20.84179878234863 C 4.924869537353516 20.84179878234863 0 17.07512855529785 0 10.99999904632568 C 0 4.924869537353516 4.924869537353516 2.113279342651367 11 2.113279342651367 Z" stroke="none" fill="#d63b3b"/>
          </g>
        </g>
        <g id="Cheese" transform="translate(108.042 50.97) rotate(-11)">
          <path id="Path_1256" data-name="Path 1256" d="M48,29H63V55H26a4,4,0,0,0-8,0H1V29H38" fill="url(#linear-gradient-5)"/>
          <path id="Path_1257" data-name="Path 1257" d="M63,52v3H26a4,4,0,0,0-8,0H1V52c6.63,0,10.88.5,19.24-3.59,4-2,5,3.59,16.83,3.59Z" fill="#dd8b37"/>
          <path id="Path_1258" data-name="Path 1258" d="M48,29H63c0-7.92-7.15-16.12-16-20L28.84,16.89c1.38,4.38-4.88,7.21-7.27,3.16L1,29H38" fill="url(#linear-gradient-5)"/>
          <ellipse id="Ellipse_184" data-name="Ellipse 184" cx="5" cy="3" rx="5" ry="3" transform="translate(38 26)" fill="#dd8b37"/>
          <circle id="Ellipse_185" data-name="Ellipse 185" cx="4" cy="4" r="4" transform="translate(7 39)" fill="#dd8b37"/>
          <circle id="Ellipse_186" data-name="Ellipse 186" cx="5" cy="5" r="5" transform="translate(48 34)" fill="#dd8b37"/>
          <circle id="Ellipse_187" data-name="Ellipse 187" cx="3" cy="3" r="3" transform="translate(22 33)" fill="#dd8b37"/>
          <circle id="Ellipse_188" data-name="Ellipse 188" cx="4" cy="4" r="4" transform="translate(34 42)" fill="#dd8b37"/>
          <circle id="Ellipse_189" data-name="Ellipse 189" cx="3" cy="3" r="3" transform="translate(44 14)" fill="#dd8b37"/>
        </g>
        <g id="ONION" transform="translate(114.888)">
          <path id="Path_1238" data-name="Path 1238" d="M360.25,157s9.512,16.734,6.126,84.342l6.71.214S375.318,177.94,360.25,157Z" transform="translate(-360.25 -132.942)" fill="#5bbd6a"/>
          <path id="Path_1239" data-name="Path 1239" d="M374,211.4s12.871-86.93,3.787-108.4c0,0,14.136,21.5,2.936,108.6Z" transform="translate(-367.874 -103)" fill="#89d394" stroke="#5bbd6a" stroke-linecap="round" stroke-linejoin="round" stroke-width="2"/>
          <path id="Path_1240" data-name="Path 1240" d="M374,256.867C377.88,225.65,405.543,185,405.543,185l-7.51,17.673s-15.637,40.26-17.311,54.395Z" transform="translate(-367.874 -148.467)" fill="#5bbd6a"/>
          <path id="Path_1241" data-name="Path 1241" d="M367.54,369.522s2.054-11.913,2.891-24.758c0,0,3.564-2.932,6.71.214a156.789,156.789,0,0,0,.312,26.678Z" transform="translate(-364.292 -236.364)" fill="#f7f3ef" stroke="#070707" stroke-linecap="round" stroke-linejoin="round" stroke-width="2"/>
          <ellipse id="Ellipse_183" data-name="Ellipse 183" cx="3.007" cy="5.128" rx="3.007" ry="5.128" transform="translate(2.42 136.081) rotate(-74.05)" fill="#f7f3ef" stroke="#070707" stroke-linecap="round" stroke-linejoin="round" stroke-width="2"/>
          <path id="Path_1242" data-name="Path 1242" d="M377.97,403.031v.027a2.042,2.042,0,0,1-1.64,1.337,5.432,5.432,0,0,1-2.785-.107c-2.1-.6-3.453-2.076-3.119-3.368v-.027a2.041,2.041,0,0,1,1.64-1.337,5.448,5.448,0,0,1,2.789.107C376.958,400.259,378.317,401.739,377.97,403.031Zm-6.981-1.947c-.254.953.98,2.17,2.7,2.673a4.821,4.821,0,0,0,2.486.1,1.55,1.55,0,0,0,1.225-.949h0c.258-.953-.976-2.17-2.7-2.673a4.82,4.82,0,0,0-2.486-.1A1.55,1.55,0,0,0,370.988,401.084Z" transform="translate(-365.865 -267.36)" fill="#f7f3ef" stroke="#070707" stroke-linecap="round" stroke-linejoin="round" stroke-width="2"/>
          <path id="Path_1243" data-name="Path 1243" d="M378.309,404.036h0c-.187.655-1.123.944-2.134.655s-1.644-1.02-1.47-1.671h0c.187-.659,1.123-.949,2.134-.659h0C377.841,402.65,378.482,403.381,378.309,404.036Zm-3.043-.855c-.076.29.361.766,1.074.967s1.337.031,1.417-.258h0c.076-.29-.365-.762-1.074-.967h0C375.97,402.721,375.346,402.891,375.266,403.18Z" transform="translate(-368.249 -268.926)" fill="#f7f3ef" stroke="#070707" stroke-linecap="round" stroke-linejoin="round" stroke-width="2"/>
        </g>
        <g id="PACK" transform="translate(55.721 81.527)">
          <path id="Path_1244" data-name="Path 1244" d="M485.134,290.48,468.543,416.946H461.2L442.23,290.48Z" transform="translate(-341.782 -290.48)" fill="#dbeddd" stroke="#a7bcaa" stroke-linecap="round" stroke-linejoin="round" stroke-width="2"/>
          <path id="Path_1245" data-name="Path 1245" d="M496.38,299.66l-16.3,123.009h-7.347L454.06,299.66Z" transform="translate(-348.342 -295.57)" fill="#dbeddd" stroke="#a7bcaa" stroke-linecap="round" stroke-linejoin="round" stroke-width="2"/>
          <path id="Path_1246" data-name="Path 1246" d="M486.2,290.48l-16.6,126.466h-7.347L443.3,290.48Z" transform="translate(-342.376 -290.48)" fill="#dbeddd" stroke="#a7bcaa" stroke-linecap="round" stroke-linejoin="round" stroke-width="2"/>
          <path id="Path_1247" data-name="Path 1247" d="M336.656,416.946H233.366L216.77,290.48H317.694Z" transform="translate(-216.77 -290.48)" fill="#dbeddd" stroke="#a7bcaa" stroke-linecap="round" stroke-linejoin="round" stroke-width="2"/>
        </g>
        <path id="Path_1307" data-name="Path 1307" d="M188.933,71.766c.264-.339,3.546,1.528,4.375,2.489s.038,1.98-1.056,1.357S188.669,72.1,188.933,71.766Z" transform="translate(1.254)" fill="#fff" opacity="0.62"/>
      </g>
    </g>
  </g>
</svg>
